<?xml version="1.0" encoding="UTF-8"?>
<svg width="512" height="512" viewBox="0 0 512 512" xmlns="http://www.w3.org/2000/svg">
  <!-- Brain + Dumbbell Logo for FitMind Coach -->
  <defs>
    <linearGradient id="gradient1" x1="0%" y1="0%" x2="100%" y2="100%">
      <stop offset="0%" stop-color="#3f51b5" />
      <stop offset="100%" stop-color="#7986cb" />
    </linearGradient>
    <linearGradient id="gradient2" x1="0%" y1="0%" x2="100%" y2="100%">
      <stop offset="0%" stop-color="#3f51b5" />
      <stop offset="100%" stop-color="#5c6bc0" />
    </linearGradient>
  </defs>
  
  <!-- Brain part -->
  <path fill="url(#gradient1)" d="M256,96c-35.3,0-64,28.7-64,64c0,16.4,6.2,31.4,16.4,42.8c-8.7,9.1-14.4,21.3-14.4,34.9c0,18.6,10.2,34.9,25.3,43.5
    c-0.7,3.5-1.1,7.1-1.1,10.8c0,28.4,23,51.4,51.4,51.4c11.4,0,22-3.7,30.6-10c8.6,6.3,19.2,10,30.6,10c28.4,0,51.4-23,51.4-51.4
    c0-3.7-0.4-7.3-1.1-10.8c15.1-8.6,25.3-24.9,25.3-43.5c0-13.6-5.7-25.8-14.4-34.9c10.2-11.4,16.4-26.4,16.4-42.8c0-35.3-28.7-64-64-64
    c-15.6,0-29.8,5.6-40.9,14.8C296,101.6,281.7,96,266,96H256z"/>
  
  <!-- Dumbbell part -->
  <g transform="translate(128, 300) scale(0.8)">
    <rect x="50" y="90" width="300" height="40" rx="20" ry="20" fill="url(#gradient2)"/>
    <circle cx="50" cy="110" r="40" fill="url(#gradient2)"/>
    <circle cx="350" cy="110" r="40" fill="url(#gradient2)"/>
    <rect x="10" y="90" width="30" height="40" rx="10" ry="10" fill="url(#gradient2)"/>
    <rect x="360" y="90" width="30" height="40" rx="10" ry="10" fill="url(#gradient2)"/>
  </g>
</svg>
